<svg width="681" height="87" viewBox="0 0 681 87" fill="none" xmlns="http://www.w3.org/2000/svg">
<path d="M64.5343 3H25.6933C13.1602 3 3 12.8088 3 24.9085V62.4061C3 74.5057 13.1602 84.3145 25.6933 84.3145H64.5341C77.0672 84.3145 87.2273 74.5057 87.2273 62.4061V24.9085C87.2275 12.8088 77.0673 3 64.5343 3Z" stroke="black" stroke-width="4.7008" stroke-miterlimit="10"/>
<path d="M45.114 63.2852C56.3424 63.2852 65.4448 54.4976 65.4448 43.6575C65.4448 32.8174 56.3424 24.0298 45.114 24.0298C33.8856 24.0298 24.7832 32.8174 24.7832 43.6575C24.7832 54.4976 33.8856 63.2852 45.114 63.2852Z" stroke="black" stroke-width="4.7008" stroke-miterlimit="10"/>
<path d="M69.801 24.0296C72.2071 24.0296 74.1576 22.1465 74.1576 19.8236C74.1576 17.5008 72.2071 15.6177 69.801 15.6177C67.3949 15.6177 65.4443 17.5008 65.4443 19.8236C65.4443 22.1465 67.3949 24.0296 69.801 24.0296Z" fill="black"/>
<path d="M365.294 14.8586C365.294 14.4093 365.109 13.9784 364.78 13.6607C364.451 13.343 364.004 13.1646 363.539 13.1646H354.765C350.347 12.9521 346.022 14.4364 342.734 17.2932C339.446 20.1501 337.463 24.1471 337.218 28.411V37.5589H328.444C327.979 37.5589 327.532 37.7374 327.203 38.0551C326.874 38.3728 326.689 38.8037 326.689 39.253V48.0621C326.689 48.5114 326.874 48.9422 327.203 49.2599C327.532 49.5776 327.979 49.7561 328.444 49.7561H337.218V72.4564C337.218 72.9057 337.403 73.3366 337.732 73.6543C338.061 73.972 338.507 74.1505 338.973 74.1505H349.501C349.966 74.1505 350.413 73.972 350.742 73.6543C351.071 73.3366 351.256 72.9057 351.256 72.4564V49.7561H360.451C360.841 49.7615 361.222 49.6412 361.533 49.4142C361.845 49.1871 362.069 48.8663 362.17 48.5025L364.697 39.6934C364.767 39.4431 364.776 39.1807 364.724 38.9263C364.673 38.672 364.561 38.4325 364.398 38.2263C364.236 38.0201 364.026 37.8527 363.786 37.737C363.546 37.6213 363.281 37.5604 363.012 37.5589H351.256V28.411C351.343 27.5724 351.751 26.7953 352.4 26.2315C353.049 25.6676 353.892 25.3575 354.765 25.3617H363.539C364.004 25.3617 364.451 25.1833 364.78 24.8656C365.109 24.5479 365.294 24.117 365.294 23.6677V14.8586Z" fill="#231F20"/>
<path d="M679.404 33.4933C680.046 33.0009 681 33.4615 681 34.2397V66.7179C681 70.9266 677.463 74.3411 673.103 74.3411H604.669C600.309 74.3411 596.772 70.9266 596.772 66.7179V34.2556C596.772 33.4615 597.71 33.0168 598.368 33.5092C602.053 36.2726 606.939 39.7825 623.719 51.5508C627.19 53.9966 633.046 59.1423 638.886 59.1105C644.759 59.1582 650.731 53.9013 654.07 51.5508C670.85 39.7825 675.719 36.2567 679.404 33.4933ZM638.886 54.0125C642.703 54.076 648.197 49.375 650.961 47.4375C672.791 32.1433 674.452 30.8093 679.486 26.9976C680.44 26.283 681 25.1712 681 23.996V20.9785C681 16.7698 677.463 13.3552 673.103 13.3552H604.669C600.309 13.3552 596.772 16.7698 596.772 20.9785V23.996C596.772 25.1712 597.332 26.2671 598.286 26.9976C603.32 30.7934 604.981 32.1433 626.811 47.4375C629.575 49.375 635.07 54.076 638.886 54.0125Z" fill="black"/>
</svg>
